<svg width="297" height="310" viewBox="0 0 297 310" fill="none" xmlns="http://www.w3.org/2000/svg">
<circle cx="20.0472" cy="2.08235" r="2.08235" fill="#FF2E2E"/>
<circle cx="45.0355" cy="2.08235" r="2.08235" fill="#FF2E2E"/>
<circle cx="70.0238" cy="2.08235" r="2.08235" fill="#FF2E2E"/>
<circle cx="95.0116" cy="2.08235" r="2.08235" fill="#FF2E2E"/>
<circle cx="120" cy="2.08235" r="2.08235" fill="#FF2E2E"/>
<circle cx="144.988" cy="2.08235" r="2.08235" fill="#FF2E2E"/>
<circle cx="169.976" cy="2.08235" r="2.08235" fill="#FF2E2E"/>
<circle cx="194.965" cy="2.08235" r="2.08235" fill="#FF2E2E"/>
<circle cx="219.953" cy="2.08235" r="2.08235" fill="#FF2E2E"/>
<circle cx="244.941" cy="2.08235" r="2.08235" fill="#FF2E2E"/>
<circle cx="269.93" cy="2.08235" r="2.08235" fill="#FF2E2E"/>
<circle cx="294.918" cy="2.08235" r="2.08235" fill="#FF2E2E"/>
<circle cx="20.0472" cy="27.0706" r="2.08235" fill="#FF2E2E"/>
<circle cx="45.0355" cy="27.0706" r="2.08235" fill="#FF2E2E"/>
<circle cx="70.0238" cy="27.0706" r="2.08235" fill="#FF2E2E"/>
<circle cx="95.0116" cy="27.0706" r="2.08235" fill="#FF2E2E"/>
<circle cx="120" cy="27.0706" r="2.08235" fill="#FF2E2E"/>
<circle cx="144.988" cy="27.0706" r="2.08235" fill="#FF2E2E"/>
<circle cx="169.976" cy="27.0706" r="2.08235" fill="#FF2E2E"/>
<circle cx="194.965" cy="27.0706" r="2.08235" fill="#FF2E2E"/>
<circle cx="219.953" cy="27.0706" r="2.08235" fill="#FF2E2E"/>
<circle cx="244.941" cy="27.0706" r="2.08235" fill="#FF2E2E"/>
<circle cx="269.93" cy="27.0706" r="2.08235" fill="#FF2E2E"/>
<circle cx="294.918" cy="27.0706" r="2.08235" fill="#FF2E2E"/>
<circle cx="20.0472" cy="52.0589" r="2.08235" fill="#FF2E2E"/>
<circle cx="45.0355" cy="52.0589" r="2.08235" fill="#FF2E2E"/>
<circle cx="70.0238" cy="52.0589" r="2.08235" fill="#FF2E2E"/>
<circle cx="95.0116" cy="52.0589" r="2.08235" fill="#FF2E2E"/>
<circle cx="120" cy="52.0589" r="2.08235" fill="#FF2E2E"/>
<circle cx="144.988" cy="52.0589" r="2.08235" fill="#FF2E2E"/>
<circle cx="169.976" cy="52.0589" r="2.08235" fill="#FF2E2E"/>
<circle cx="194.965" cy="52.0589" r="2.08235" fill="#FF2E2E"/>
<circle cx="219.953" cy="52.0589" r="2.08235" fill="#FF2E2E"/>
<circle cx="244.941" cy="52.0589" r="2.08235" fill="#FF2E2E"/>
<circle cx="269.93" cy="52.0589" r="2.08235" fill="#FF2E2E"/>
<circle cx="294.918" cy="52.0589" r="2.08235" fill="#FF2E2E"/>
<circle cx="20.0472" cy="77.0472" r="2.08235" fill="#FF2E2E"/>
<circle cx="45.0355" cy="77.0472" r="2.08235" fill="#FF2E2E"/>
<circle cx="70.0238" cy="77.0472" r="2.08235" fill="#FF2E2E"/>
<circle cx="95.0116" cy="77.0472" r="2.08235" fill="#FF2E2E"/>
<circle cx="120" cy="77.0472" r="2.08235" fill="#FF2E2E"/>
<circle cx="144.988" cy="77.0472" r="2.08235" fill="#FF2E2E"/>
<circle cx="169.976" cy="77.0472" r="2.08235" fill="#FF2E2E"/>
<circle cx="194.965" cy="77.0472" r="2.08235" fill="#FF2E2E"/>
<circle cx="219.953" cy="77.0472" r="2.08235" fill="#FF2E2E"/>
<circle cx="244.941" cy="77.0472" r="2.08235" fill="#FF2E2E"/>
<circle cx="269.93" cy="77.0472" r="2.08235" fill="#FF2E2E"/>
<circle cx="294.918" cy="77.0472" r="2.08235" fill="#FF2E2E"/>
<circle cx="20.0472" cy="102.035" r="2.08235" fill="#FF2E2E"/>
<circle cx="45.0355" cy="102.035" r="2.08235" fill="#FF2E2E"/>
<circle cx="70.0238" cy="102.035" r="2.08235" fill="#FF2E2E"/>
<circle cx="95.0116" cy="102.035" r="2.08235" fill="#FF2E2E"/>
<circle cx="120" cy="102.035" r="2.08235" fill="#FF2E2E"/>
<circle cx="144.988" cy="102.035" r="2.08235" fill="#FF2E2E"/>
<circle cx="169.976" cy="102.035" r="2.08235" fill="#FF2E2E"/>
<circle cx="194.965" cy="102.035" r="2.08235" fill="#FF2E2E"/>
<circle cx="219.953" cy="102.035" r="2.08235" fill="#FF2E2E"/>
<circle cx="244.941" cy="102.035" r="2.08235" fill="#FF2E2E"/>
<circle cx="269.93" cy="102.035" r="2.08235" fill="#FF2E2E"/>
<circle cx="294.918" cy="102.035" r="2.08235" fill="#FF2E2E"/>
<circle cx="20.0472" cy="127.024" r="2.08235" fill="#FF2E2E"/>
<circle cx="45.0355" cy="127.024" r="2.08235" fill="#FF2E2E"/>
<circle cx="70.0238" cy="127.024" r="2.08235" fill="#FF2E2E"/>
<circle cx="95.0116" cy="127.024" r="2.08235" fill="#FF2E2E"/>
<circle cx="120" cy="127.024" r="2.08235" fill="#FF2E2E"/>
<circle cx="144.988" cy="127.024" r="2.08235" fill="#FF2E2E"/>
<circle cx="169.976" cy="127.024" r="2.08235" fill="#FF2E2E"/>
<circle cx="194.965" cy="127.024" r="2.08235" fill="#FF2E2E"/>
<circle cx="219.953" cy="127.024" r="2.08235" fill="#FF2E2E"/>
<circle cx="244.941" cy="127.024" r="2.08235" fill="#FF2E2E"/>
<circle cx="269.93" cy="127.024" r="2.08235" fill="#FF2E2E"/>
<circle cx="294.918" cy="127.024" r="2.08235" fill="#FF2E2E"/>
<circle cx="20.0472" cy="152.012" r="2.08235" fill="#FF2E2E"/>
<circle cx="45.0355" cy="152.012" r="2.08235" fill="#FF2E2E"/>
<circle cx="70.0238" cy="152.012" r="2.08235" fill="#FF2E2E"/>
<circle cx="95.0116" cy="152.012" r="2.08235" fill="#FF2E2E"/>
<circle cx="120" cy="152.012" r="2.08235" fill="#FF2E2E"/>
<circle cx="144.988" cy="152.012" r="2.08235" fill="#FF2E2E"/>
<circle cx="169.976" cy="152.012" r="2.08235" fill="#FF2E2E"/>
<circle cx="194.965" cy="152.012" r="2.08235" fill="#FF2E2E"/>
<circle cx="219.953" cy="152.012" r="2.08235" fill="#FF2E2E"/>
<circle cx="244.941" cy="152.012" r="2.08235" fill="#FF2E2E"/>
<circle cx="269.93" cy="152.012" r="2.08235" fill="#FF2E2E"/>
<circle cx="294.918" cy="152.012" r="2.08235" fill="#FF2E2E"/>
<circle cx="20.0472" cy="177" r="2.08235" fill="#FF2E2E"/>
<circle cx="45.0355" cy="177" r="2.08235" fill="#FF2E2E"/>
<circle cx="70.0238" cy="177" r="2.08235" fill="#FF2E2E"/>
<circle cx="95.0116" cy="177" r="2.08235" fill="#FF2E2E"/>
<circle cx="120" cy="177" r="2.08235" fill="#FF2E2E"/>
<circle cx="144.988" cy="177" r="2.08235" fill="#FF2E2E"/>
<circle cx="169.976" cy="177" r="2.08235" fill="#FF2E2E"/>
<circle cx="194.965" cy="177" r="2.08235" fill="#FF2E2E"/>
<circle cx="219.953" cy="177" r="2.08235" fill="#FF2E2E"/>
<circle cx="244.941" cy="177" r="2.08235" fill="#FF2E2E"/>
<circle cx="269.93" cy="177" r="2.08235" fill="#FF2E2E"/>
<circle cx="294.918" cy="177" r="2.08235" fill="#FF2E2E"/>
<circle cx="20.0472" cy="201.988" r="2.08235" fill="#FF2E2E"/>
<circle cx="45.0355" cy="201.988" r="2.08235" fill="#FF2E2E"/>
<circle cx="70.0238" cy="201.988" r="2.08235" fill="#FF2E2E"/>
<circle cx="95.0116" cy="201.988" r="2.08235" fill="#FF2E2E"/>
<circle cx="120" cy="201.988" r="2.08235" fill="#FF2E2E"/>
<circle cx="144.988" cy="201.988" r="2.08235" fill="#FF2E2E"/>
<circle cx="169.976" cy="201.988" r="2.08235" fill="#FF2E2E"/>
<circle cx="194.965" cy="201.988" r="2.08235" fill="#FF2E2E"/>
<circle cx="219.953" cy="201.988" r="2.08235" fill="#FF2E2E"/>
<circle cx="244.941" cy="201.988" r="2.08235" fill="#FF2E2E"/>
<circle cx="269.93" cy="201.988" r="2.08235" fill="#FF2E2E"/>
<circle cx="294.918" cy="201.988" r="2.08235" fill="#FF2E2E"/>
<circle cx="20.0472" cy="226.976" r="2.08235" fill="#FF2E2E"/>
<circle cx="45.0355" cy="226.976" r="2.08235" fill="#FF2E2E"/>
<circle cx="70.0238" cy="226.976" r="2.08235" fill="#FF2E2E"/>
<circle cx="95.0116" cy="226.976" r="2.08235" fill="#FF2E2E"/>
<circle cx="120" cy="226.976" r="2.08235" fill="#FF2E2E"/>
<circle cx="144.988" cy="226.976" r="2.08235" fill="#FF2E2E"/>
<circle cx="169.976" cy="226.976" r="2.08235" fill="#FF2E2E"/>
<circle cx="194.965" cy="226.976" r="2.08235" fill="#FF2E2E"/>
<circle cx="219.953" cy="226.976" r="2.08235" fill="#FF2E2E"/>
<circle cx="244.941" cy="226.976" r="2.08235" fill="#FF2E2E"/>
<circle cx="269.93" cy="226.976" r="2.08235" fill="#FF2E2E"/>
<circle cx="294.918" cy="226.976" r="2.08235" fill="#FF2E2E"/>
<circle cx="20.0472" cy="251.965" r="2.08235" fill="#FF2E2E"/>
<circle cx="45.0355" cy="251.965" r="2.08235" fill="#FF2E2E"/>
<circle cx="70.0238" cy="251.965" r="2.08235" fill="#FF2E2E"/>
<circle cx="95.0116" cy="251.965" r="2.08235" fill="#FF2E2E"/>
<circle cx="120" cy="251.965" r="2.08235" fill="#FF2E2E"/>
<circle cx="144.988" cy="251.965" r="2.08235" fill="#FF2E2E"/>
<circle cx="169.976" cy="251.965" r="2.08235" fill="#FF2E2E"/>
<circle cx="194.965" cy="251.965" r="2.08235" fill="#FF2E2E"/>
<circle cx="219.953" cy="251.965" r="2.08235" fill="#FF2E2E"/>
<circle cx="244.941" cy="251.965" r="2.08235" fill="#FF2E2E"/>
<circle cx="269.93" cy="251.965" r="2.08235" fill="#FF2E2E"/>
<circle cx="294.918" cy="251.965" r="2.08235" fill="#FF2E2E"/>
<circle cx="20.0472" cy="276.953" r="2.08235" fill="#FF2E2E"/>
<circle cx="45.0355" cy="276.953" r="2.08235" fill="#FF2E2E"/>
<circle cx="70.0238" cy="276.953" r="2.08235" fill="#FF2E2E"/>
<circle cx="95.0116" cy="276.953" r="2.08235" fill="#FF2E2E"/>
<circle cx="120" cy="276.953" r="2.08235" fill="#FF2E2E"/>
<circle cx="144.988" cy="276.953" r="2.08235" fill="#FF2E2E"/>
<circle cx="169.976" cy="276.953" r="2.08235" fill="#FF2E2E"/>
<circle cx="194.965" cy="276.953" r="2.08235" fill="#FF2E2E"/>
<circle cx="219.953" cy="276.953" r="2.08235" fill="#FF2E2E"/>
<circle cx="244.941" cy="276.953" r="2.08235" fill="#FF2E2E"/>
<circle cx="269.93" cy="276.953" r="2.08235" fill="#FF2E2E"/>
<circle cx="294.918" cy="276.953" r="2.08235" fill="#FF2E2E"/>
<circle cx="20.0472" cy="301.941" r="2.08235" fill="#FF2E2E"/>
<circle cx="45.0355" cy="301.941" r="2.08235" fill="#FF2E2E"/>
<circle cx="70.0238" cy="301.941" r="2.08235" fill="#FF2E2E"/>
<circle cx="95.0116" cy="301.941" r="2.08235" fill="#FF2E2E"/>
<circle cx="120" cy="301.941" r="2.08235" fill="#FF2E2E"/>
<circle cx="144.988" cy="301.941" r="2.08235" fill="#FF2E2E"/>
<circle cx="169.976" cy="301.941" r="2.08235" fill="#FF2E2E"/>
<circle cx="194.965" cy="301.941" r="2.08235" fill="#FF2E2E"/>
<circle cx="219.953" cy="301.941" r="2.08235" fill="#FF2E2E"/>
<circle cx="244.941" cy="301.941" r="2.08235" fill="#FF2E2E"/>
<circle cx="269.93" cy="301.941" r="2.08235" fill="#FF2E2E"/>
<circle cx="294.918" cy="301.941" r="2.08235" fill="#FF2E2E"/>
</svg>
