<svg width="181" height="117" viewBox="0 0 181 117" fill="none" xmlns="http://www.w3.org/2000/svg">
<path d="M69 50C56.2018 50.6338 26.0846 50.7966 11.9192 62.5217C3.45727 69.5258 4.84444 80.447 11.0665 82.5138C36.4912 88.3956 38.6779 88.606 54.3368 88.5157C69.9957 88.4254 89.0499 90.1589 92.126 75.5501C94.5636 59.04 46.0642 49.5317 38.042 48.0082" stroke="#FF2E2E" stroke-width="0.8" stroke-linecap="round"/>
<path d="M126.95 14.28C126.623 14.028 126.409 13.832 126.306 13.692C126.203 13.5427 126.143 13.3607 126.124 13.146C126.115 13.0993 126.11 13.0153 126.11 12.894C126.11 12.6327 126.133 12.306 126.18 11.914C126.227 11.522 126.273 11.2093 126.32 10.976C126.357 10.9387 126.376 10.8827 126.376 10.808C126.385 10.7333 126.385 10.6867 126.376 10.668C126.376 10.64 126.399 10.5467 126.446 10.388C126.558 10.0427 126.637 9.75333 126.684 9.52C126.936 8.75467 127.183 8.14333 127.426 7.686C127.669 7.22867 127.939 6.79933 128.238 6.398C128.639 5.98733 128.952 5.68867 129.176 5.502C129.409 5.306 129.666 5.14267 129.946 5.012C130.31 4.79733 130.571 4.69 130.73 4.69C130.758 4.69 130.8 4.69933 130.856 4.718C131.379 4.83 131.771 5.04467 132.032 5.362C132.293 5.67 132.485 6.15067 132.606 6.804C132.69 7.37333 132.732 7.80267 132.732 8.092C132.732 8.55867 132.648 9.03 132.48 9.506C132.312 9.982 132.009 10.5793 131.57 11.298C131.066 12.2873 130.469 13.0807 129.778 13.678C129.097 14.2753 128.453 14.574 127.846 14.574C127.519 14.574 127.221 14.476 126.95 14.28ZM127.846 13.874C128.163 13.8367 128.462 13.7153 128.742 13.51C129.031 13.2953 129.386 12.9453 129.806 12.46C130.17 12.04 130.427 11.7227 130.576 11.508C130.735 11.2933 130.875 11.0367 130.996 10.738C131.117 10.4393 131.267 9.982 131.444 9.366C131.547 8.974 131.612 8.67067 131.64 8.456C131.677 8.232 131.696 7.966 131.696 7.658L131.682 6.748C131.673 6.58933 131.64 6.426 131.584 6.258C131.528 6.08067 131.463 5.95 131.388 5.866C131.248 5.70733 131.066 5.628 130.842 5.628C130.702 5.628 130.567 5.66067 130.436 5.726C130.259 5.80067 129.997 6.02 129.652 6.384C129.307 6.73867 128.994 7.10733 128.714 7.49C128.443 7.86333 128.308 8.106 128.308 8.218C128.308 8.22733 128.303 8.25533 128.294 8.302C128.285 8.34867 128.266 8.39067 128.238 8.428C128.079 8.596 127.902 8.93667 127.706 9.45C127.51 9.96333 127.337 10.5187 127.188 11.116C127.039 11.7133 126.955 12.2127 126.936 12.614L126.908 13.09C126.908 13.174 126.913 13.2393 126.922 13.286C126.941 13.3327 126.973 13.3887 127.02 13.454C127.067 13.51 127.109 13.5707 127.146 13.636C127.193 13.7107 127.267 13.7713 127.37 13.818C127.473 13.8647 127.58 13.888 127.692 13.888C127.757 13.888 127.809 13.8833 127.846 13.874ZM135.911 13.972C135.687 13.7573 135.519 13.44 135.407 13.02C135.389 12.964 135.379 12.866 135.379 12.726C135.379 12.586 135.379 12.488 135.379 12.432C135.323 12.572 135.221 12.698 135.071 12.81C134.857 13.0247 134.642 13.1833 134.427 13.286C134.101 13.5007 133.835 13.608 133.629 13.608C133.443 13.608 133.265 13.5053 133.097 13.3C132.976 13.1973 132.883 13.0947 132.817 12.992C132.761 12.8893 132.733 12.7633 132.733 12.614C132.733 12.5113 132.747 12.3993 132.775 12.278C132.794 11.9327 132.841 11.6013 132.915 11.284C132.999 10.9667 133.153 10.5607 133.377 10.066C133.676 9.478 133.891 9.086 134.021 8.89C134.068 8.87133 134.129 8.862 134.203 8.862C134.297 8.862 134.371 8.89 134.427 8.946C134.493 9.002 134.53 9.07667 134.539 9.17C134.567 9.20733 134.581 9.25867 134.581 9.324C134.581 9.55733 134.441 9.94 134.161 10.472C133.797 11.3493 133.615 11.956 133.615 12.292C133.615 12.488 133.671 12.6047 133.783 12.642C133.83 12.67 133.881 12.684 133.937 12.684C134.171 12.684 134.451 12.5253 134.777 12.208C135.104 11.8907 135.417 11.382 135.715 10.682C135.846 10.3647 135.925 10.038 135.953 9.702C135.944 9.674 135.939 9.632 135.939 9.576C135.939 9.408 136.023 9.27267 136.191 9.17C136.229 9.114 136.28 9.072 136.345 9.044C136.411 9.00667 136.453 9.00667 136.471 9.044L136.695 9.03C136.723 9.02067 136.751 9.04867 136.779 9.114C136.807 9.17 136.835 9.20733 136.863 9.226C136.929 9.282 136.961 9.38467 136.961 9.534C136.961 9.842 136.826 10.3133 136.555 10.948C136.378 11.3213 136.257 11.6107 136.191 11.816C136.135 12.012 136.103 12.2033 136.093 12.39C136.093 12.7447 136.229 13.0387 136.499 13.272C136.593 13.3373 136.649 13.4073 136.667 13.482C136.686 13.5567 136.691 13.6593 136.681 13.79C136.663 13.874 136.607 13.944 136.513 14C136.429 14.0467 136.336 14.07 136.233 14.07C136.112 14.07 136.005 14.0373 135.911 13.972ZM137.733 13.51C137.658 13.454 137.607 13.4027 137.579 13.356C137.551 13.3093 137.537 13.2393 137.537 13.146C137.537 13.062 137.542 12.992 137.551 12.936C137.579 12.6187 137.649 12.25 137.761 11.83L137.831 11.55C137.859 11.3167 138.022 10.8267 138.321 10.08C138.62 9.33333 138.862 8.82467 139.049 8.554C139.124 8.50733 139.203 8.484 139.287 8.484C139.408 8.484 139.511 8.526 139.595 8.61C139.651 8.64733 139.679 8.71733 139.679 8.82C139.679 8.91333 139.642 9.05333 139.567 9.24C139.502 9.41733 139.385 9.68333 139.217 10.038C139.18 10.1127 139.114 10.2527 139.021 10.458C138.937 10.6633 138.895 10.7847 138.895 10.822C138.895 10.8407 138.9 10.85 138.909 10.85C138.928 10.85 138.946 10.8453 138.965 10.836C138.984 10.8173 139.002 10.8033 139.021 10.794C139.124 10.6167 139.371 10.374 139.763 10.066C140.164 9.758 140.44 9.56667 140.589 9.492C140.654 9.45467 140.738 9.41733 140.841 9.38C140.944 9.34267 141.014 9.31467 141.051 9.296C141.2 9.22133 141.378 9.184 141.583 9.184C141.714 9.184 141.826 9.20733 141.919 9.254C142.022 9.29133 142.092 9.352 142.129 9.436C142.138 9.50133 142.162 9.55267 142.199 9.59C142.246 9.62733 142.278 9.65067 142.297 9.66C142.325 9.66 142.344 9.674 142.353 9.702C142.362 9.72067 142.367 9.73467 142.367 9.744C142.367 9.80933 142.33 9.85133 142.255 9.87C142.18 9.87933 142.045 9.88867 141.849 9.898C141.746 9.90733 141.639 9.93067 141.527 9.968C141.415 10.0053 141.303 10.052 141.191 10.108C140.668 10.4067 140.276 10.64 140.015 10.808C139.763 10.976 139.506 11.2047 139.245 11.494C139.142 11.606 139.007 11.8067 138.839 12.096C138.774 12.1613 138.704 12.334 138.629 12.614C138.564 12.8847 138.531 13.0527 138.531 13.118C138.522 13.146 138.503 13.202 138.475 13.286C138.447 13.3607 138.405 13.4353 138.349 13.51C138.237 13.6593 138.144 13.734 138.069 13.734C137.985 13.734 137.873 13.6593 137.733 13.51ZM147.092 13.972C146.962 13.9347 146.854 13.8927 146.77 13.846C146.686 13.7993 146.574 13.7107 146.434 13.58C146.266 13.356 146.154 13.1507 146.098 12.964C146.052 12.768 146.028 12.46 146.028 12.04C146.028 11.816 146.154 11.2 146.406 10.192C146.388 10.2573 146.42 10.122 146.504 9.786C146.532 9.68333 146.495 9.618 146.392 9.59C146.29 9.562 146.145 9.548 145.958 9.548C145.8 9.548 145.706 9.53867 145.678 9.52C145.65 9.51067 145.632 9.49667 145.622 9.478C145.622 9.45933 145.622 9.44533 145.622 9.436C145.622 9.38933 145.604 9.33333 145.566 9.268C145.557 9.25867 145.552 9.24467 145.552 9.226C145.552 9.17933 145.576 9.128 145.622 9.072C145.678 9.016 145.744 8.98333 145.818 8.974C145.865 8.96467 145.972 8.95067 146.14 8.932C146.308 8.91333 146.467 8.876 146.616 8.82C146.766 8.764 146.882 8.68467 146.966 8.582C147.088 8.274 147.242 7.92867 147.428 7.546C147.615 7.154 147.741 6.92067 147.806 6.846C147.956 6.77133 148.058 6.734 148.114 6.734C148.17 6.734 148.217 6.75267 148.254 6.79C148.292 6.82733 148.343 6.89267 148.408 6.986C148.418 7.00467 148.441 7.03733 148.478 7.084C148.516 7.13067 148.534 7.17733 148.534 7.224C148.534 7.29867 148.497 7.41067 148.422 7.56C148.357 7.70933 148.222 7.97067 148.016 8.344L147.834 8.694C147.862 8.70333 147.928 8.708 148.03 8.708C148.133 8.708 148.217 8.70333 148.282 8.694C148.488 8.65667 148.679 8.638 148.856 8.638C148.95 8.638 149.015 8.64267 149.052 8.652C149.267 8.652 149.421 8.694 149.514 8.778C149.617 8.85267 149.678 8.98333 149.696 9.17C149.715 9.27267 149.696 9.33333 149.64 9.352C149.584 9.37067 149.426 9.38 149.164 9.38C148.082 9.42667 147.536 9.46867 147.526 9.506C147.489 9.534 147.419 9.69733 147.316 9.996C147.214 10.2947 147.125 10.5793 147.05 10.85C146.929 11.41 146.868 11.9047 146.868 12.334C146.868 12.726 146.924 12.9873 147.036 13.118C147.083 13.1647 147.172 13.188 147.302 13.188C147.433 13.188 147.573 13.1647 147.722 13.118C147.881 13.062 148.012 12.992 148.114 12.908C148.282 12.768 148.422 12.698 148.534 12.698C148.59 12.698 148.632 12.7167 148.66 12.754C148.698 12.782 148.716 12.8193 148.716 12.866C148.716 12.9687 148.66 13.0993 148.548 13.258C148.408 13.4727 148.222 13.65 147.988 13.79C147.755 13.93 147.531 14 147.316 14C147.214 14 147.139 13.9907 147.092 13.972ZM150.397 13.678C150.36 13.7433 150.313 13.776 150.257 13.776C150.201 13.776 150.141 13.7573 150.075 13.72C150.019 13.6827 149.987 13.6593 149.977 13.65C149.837 13.65 149.749 13.5753 149.711 13.426C149.702 13.4073 149.697 13.3653 149.697 13.3C149.697 13.1787 149.753 12.9407 149.865 12.586L149.963 12.138C150.057 11.7273 150.141 11.382 150.215 11.102C150.243 11.0553 150.299 10.8967 150.383 10.626C150.439 10.4207 150.514 10.22 150.607 10.024C150.719 9.604 150.897 9.18867 151.139 8.778C151.158 8.75 151.195 8.71267 151.251 8.666C151.307 8.61933 151.349 8.596 151.377 8.596C151.433 8.54 151.494 8.512 151.559 8.512C151.625 8.512 151.709 8.554 151.811 8.638C151.905 8.75 151.951 8.85733 151.951 8.96C151.951 9.13733 151.835 9.40333 151.601 9.758L151.377 10.304C151.359 10.3507 151.312 10.4627 151.237 10.64C151.163 10.808 151.116 10.962 151.097 11.102C151.219 10.934 151.438 10.6913 151.755 10.374C151.942 10.1873 152.096 10.052 152.217 9.968C152.339 9.87467 152.516 9.75333 152.749 9.604C152.917 9.48267 153.067 9.394 153.197 9.338C153.328 9.282 153.473 9.254 153.631 9.254C153.715 9.254 153.781 9.25867 153.827 9.268C153.958 9.25867 154.061 9.324 154.135 9.464C154.21 9.604 154.257 9.786 154.275 10.01C154.163 9.99133 154.084 9.982 154.037 9.982C153.851 9.982 153.683 10.0193 153.533 10.094C153.393 10.1687 153.277 10.2433 153.183 10.318C153.09 10.3833 153.029 10.4253 153.001 10.444C152.497 10.7707 152.105 11.0787 151.825 11.368C151.536 11.6853 151.331 11.9187 151.209 12.068C151.097 12.2173 151.013 12.3667 150.957 12.516C150.929 12.5813 150.85 12.7773 150.719 13.104C150.589 13.4213 150.481 13.6127 150.397 13.678ZM155.652 13.594C155.559 13.6127 155.475 13.622 155.4 13.622C155.279 13.622 155.167 13.6127 155.064 13.594C154.962 13.566 154.91 13.5333 154.91 13.496C154.91 13.468 154.906 13.4493 154.896 13.44C154.887 13.4307 154.868 13.426 154.84 13.426C154.831 13.4167 154.803 13.3933 154.756 13.356C154.71 13.3187 154.654 13.286 154.588 13.258C154.504 13.1273 154.462 12.9873 154.462 12.838C154.462 12.6793 154.504 12.432 154.588 12.096C154.616 11.7973 154.756 11.424 155.008 10.976C155.26 10.528 155.554 10.1033 155.89 9.702C156.236 9.30067 156.544 9.02067 156.814 8.862C156.954 8.722 157.132 8.652 157.346 8.652C157.514 8.652 157.673 8.694 157.822 8.778C157.953 8.85267 158.088 8.97867 158.228 9.156C158.378 9.33333 158.494 9.51533 158.578 9.702C158.616 9.842 158.634 9.97733 158.634 10.108C158.634 10.248 158.616 10.4673 158.578 10.766C158.532 10.934 158.49 11.1393 158.452 11.382C158.424 11.6247 158.41 11.8347 158.41 12.012C158.392 12.1427 158.401 12.25 158.438 12.334C158.476 12.4087 158.527 12.446 158.592 12.446C158.639 12.446 158.69 12.432 158.746 12.404C158.84 12.3573 158.942 12.334 159.054 12.334C159.157 12.334 159.241 12.362 159.306 12.418C159.372 12.474 159.404 12.558 159.404 12.67C159.404 12.838 159.288 13.006 159.054 13.174C158.83 13.342 158.616 13.426 158.41 13.426C158.27 13.426 158.14 13.3187 158.018 13.104C157.906 12.88 157.794 12.5953 157.682 12.25L157.598 11.928L156.996 12.502L156.674 12.824C156.525 12.9733 156.441 13.062 156.422 13.09C156.32 13.2673 156.063 13.4353 155.652 13.594ZM155.694 12.768C155.918 12.6373 156.194 12.4087 156.52 12.082C156.847 11.7553 157.118 11.4427 157.332 11.144C157.622 10.7613 157.804 10.3833 157.878 10.01C157.841 9.898 157.78 9.786 157.696 9.674C157.612 9.562 157.538 9.50133 157.472 9.492C157.286 9.492 157.09 9.59933 156.884 9.814C156.679 10.0287 156.436 10.3273 156.156 10.71L155.694 11.396C155.638 11.4707 155.54 11.6713 155.4 11.998C155.26 12.3153 155.19 12.5067 155.19 12.572C155.19 12.7773 155.251 12.88 155.372 12.88C155.466 12.88 155.573 12.8427 155.694 12.768ZM162.125 8.008C161.948 8.008 161.766 7.91467 161.579 7.728C161.402 7.532 161.313 7.33133 161.313 7.126C161.313 7.07933 161.369 6.972 161.481 6.804C161.593 6.636 161.649 6.54267 161.649 6.524C161.715 6.524 161.771 6.52867 161.817 6.538C161.864 6.54733 161.92 6.566 161.985 6.594C162.069 6.78067 162.2 6.972 162.377 7.168C162.433 7.24267 162.485 7.31267 162.531 7.378C162.578 7.44333 162.601 7.49933 162.601 7.546C162.601 7.70467 162.592 7.812 162.573 7.868C162.564 7.924 162.527 7.96133 162.461 7.98C162.405 7.99867 162.293 8.008 162.125 8.008ZM160.067 13.314C160.039 13.314 160.002 13.3047 159.955 13.286C159.909 13.2673 159.876 13.2533 159.857 13.244C159.857 13.216 159.843 13.1693 159.815 13.104C159.797 13.0293 159.787 12.9827 159.787 12.964C159.713 12.9267 159.675 12.88 159.675 12.824C159.675 12.7773 159.689 12.712 159.717 12.628C159.839 12.4133 160.053 11.928 160.361 11.172C160.669 10.4067 160.842 9.954 160.879 9.814C160.879 9.77667 160.893 9.73 160.921 9.674C160.949 9.618 160.982 9.57133 161.019 9.534C161.057 9.49667 161.099 9.478 161.145 9.478C161.248 9.478 161.341 9.548 161.425 9.688C161.519 9.828 161.565 9.982 161.565 10.15C161.565 10.262 161.458 10.584 161.243 11.116C161.038 11.6387 160.805 12.166 160.543 12.698C160.506 12.7727 160.45 12.88 160.375 13.02C160.31 13.16 160.259 13.244 160.221 13.272C160.184 13.3 160.133 13.314 160.067 13.314ZM167.089 13.356C166.902 13.356 166.748 13.3187 166.627 13.244C166.505 13.16 166.403 13.0247 166.319 12.838C166.235 12.5393 166.193 12.2407 166.193 11.942C166.193 11.802 166.207 11.704 166.235 11.648C166.272 11.6107 166.286 11.5313 166.277 11.41C166.277 11.2793 166.277 11.186 166.277 11.13C166.267 10.9153 166.202 10.808 166.081 10.808C165.997 10.808 165.903 10.8407 165.801 10.906C165.278 11.2327 164.839 11.5127 164.485 11.746C164.13 11.9793 163.789 12.2407 163.463 12.53C163.332 12.6793 163.234 12.81 163.169 12.922C163.103 13.034 163.057 13.1133 163.029 13.16C163.001 13.1973 162.963 13.216 162.917 13.216C162.861 13.2347 162.823 13.244 162.805 13.244C162.758 13.244 162.702 13.2207 162.637 13.174C162.571 13.118 162.529 13.0807 162.511 13.062C162.473 13.0247 162.413 12.964 162.329 12.88C162.245 12.7867 162.198 12.7213 162.189 12.684C162.189 12.6093 162.217 12.4367 162.273 12.166C162.338 11.8953 162.389 11.7227 162.427 11.648C162.455 11.648 162.497 11.592 162.553 11.48C162.609 11.3587 162.66 11.2653 162.707 11.2C162.735 11.06 162.856 10.738 163.071 10.234C163.201 10.01 163.29 9.82333 163.337 9.674C163.393 9.52467 163.43 9.338 163.449 9.114V9.086C163.449 9.04867 163.463 9.02067 163.491 9.002C163.519 8.974 163.547 8.96 163.575 8.96C163.64 8.91333 163.701 8.89 163.757 8.89C163.878 8.89 163.999 8.96467 164.121 9.114C164.261 9.29133 164.331 9.478 164.331 9.674C164.331 9.91667 164.177 10.2993 163.869 10.822C163.841 10.8873 163.799 10.9807 163.743 11.102C163.696 11.2233 163.673 11.3073 163.673 11.354L164.457 10.822C164.531 10.738 164.732 10.5887 165.059 10.374C165.385 10.1593 165.614 10.038 165.745 10.01C165.969 9.90733 166.109 9.856 166.165 9.856C166.277 9.856 166.426 9.94 166.613 10.108C166.809 10.276 166.925 10.416 166.963 10.528C166.963 10.6307 166.972 10.7053 166.991 10.752C167.037 10.9387 167.061 11.158 167.061 11.41C167.061 11.578 167.047 11.732 167.019 11.872C167 12.0027 166.972 12.0773 166.935 12.096C166.935 12.1053 166.939 12.1193 166.949 12.138C166.958 12.1567 166.977 12.166 167.005 12.166V12.236C166.93 12.236 166.921 12.3153 166.977 12.474C167.033 12.6327 167.107 12.754 167.201 12.838C167.294 12.9313 167.341 13.0247 167.341 13.118C167.341 13.23 167.257 13.3093 167.089 13.356ZM170.619 13.51C170.386 13.7153 170.106 13.818 169.779 13.818C169.546 13.818 169.322 13.762 169.107 13.65C168.902 13.538 168.729 13.384 168.589 13.188C168.468 13.0387 168.379 12.8707 168.323 12.684C168.267 12.4973 168.239 12.2687 168.239 11.998C168.239 11.9047 168.249 11.718 168.267 11.438C168.295 11.0927 168.407 10.7333 168.603 10.36C168.809 9.98667 169.061 9.65533 169.359 9.366C169.658 9.06733 169.952 8.862 170.241 8.75C170.391 8.65667 170.526 8.61 170.647 8.61C170.713 8.61 170.778 8.61467 170.843 8.624C170.909 8.63333 170.979 8.64267 171.053 8.652C171.259 8.68 171.413 8.722 171.515 8.778C171.627 8.82467 171.721 8.89933 171.795 9.002C172.029 9.23533 172.145 9.506 172.145 9.814C172.108 10.038 171.963 10.2947 171.711 10.584C171.459 10.8733 171.156 11.1067 170.801 11.284C170.633 11.34 170.442 11.368 170.227 11.368C169.938 11.368 169.705 11.3073 169.527 11.186C169.443 11.158 169.378 11.144 169.331 11.144C169.247 11.144 169.182 11.2 169.135 11.312C169.098 11.424 169.061 11.6293 169.023 11.928C169.014 11.9933 169.009 12.0867 169.009 12.208C169.009 12.684 169.168 12.9453 169.485 12.992C169.7 13.0387 169.854 13.062 169.947 13.062C170.059 13.062 170.185 13.0247 170.325 12.95L170.591 12.796C170.647 12.768 170.699 12.7307 170.745 12.684C170.792 12.6373 170.834 12.5953 170.871 12.558C170.89 12.5393 170.918 12.5113 170.955 12.474C170.993 12.4273 171.025 12.3993 171.053 12.39C171.091 12.3713 171.123 12.362 171.151 12.362C171.189 12.362 171.231 12.3853 171.277 12.432C171.324 12.4693 171.361 12.4973 171.389 12.516C171.473 12.516 171.492 12.5767 171.445 12.698C171.399 12.81 171.296 12.9453 171.137 13.104C170.988 13.2533 170.815 13.3887 170.619 13.51ZM170.605 10.542C170.764 10.4767 170.923 10.36 171.081 10.192C171.249 10.024 171.333 9.884 171.333 9.772C171.333 9.66 171.291 9.56667 171.207 9.492C171.123 9.41733 171.007 9.38 170.857 9.38C170.745 9.38 170.661 9.38933 170.605 9.408C170.475 9.44533 170.321 9.548 170.143 9.716C169.966 9.87467 169.812 10.038 169.681 10.206C169.551 10.374 169.499 10.472 169.527 10.5C169.574 10.584 169.756 10.626 170.073 10.626C170.288 10.626 170.465 10.598 170.605 10.542ZM173.772 14.042C173.371 14.042 173.039 13.8927 172.778 13.594C172.517 13.2953 172.386 12.922 172.386 12.474C172.386 12.026 172.484 11.536 172.68 11.004C172.885 10.4627 173.147 9.97733 173.464 9.548C173.781 9.11867 174.103 8.82933 174.43 8.68C174.617 8.57733 174.827 8.526 175.06 8.526C175.237 8.526 175.438 8.57733 175.662 8.68C175.821 8.74533 175.942 8.82467 176.026 8.918C176.11 9.01133 176.185 9.156 176.25 9.352C176.278 9.52 176.292 9.63667 176.292 9.702C176.292 9.758 176.269 9.87933 176.222 10.066C176.11 10.4113 175.961 10.7053 175.774 10.948C175.597 11.1813 175.363 11.382 175.074 11.55C174.925 11.6433 174.738 11.69 174.514 11.69C174.318 11.69 174.131 11.6573 173.954 11.592C173.786 11.5173 173.655 11.41 173.562 11.27L173.464 11.158L173.422 11.27C173.226 11.774 173.128 12.2033 173.128 12.558C173.128 12.8007 173.175 12.9967 173.268 13.146C173.333 13.2487 173.492 13.3 173.744 13.3C173.931 13.3 174.066 13.2813 174.15 13.244C174.29 13.1973 174.411 13.1413 174.514 13.076C174.626 13.0013 174.733 12.9267 174.836 12.852L174.892 12.824H174.878C174.99 12.768 175.083 12.7167 175.158 12.67C175.233 12.6233 175.284 12.5907 175.312 12.572C175.331 12.572 175.349 12.5673 175.368 12.558C175.387 12.5487 175.405 12.53 175.424 12.502C175.508 12.4647 175.606 12.4787 175.718 12.544C175.83 12.6093 175.886 12.6933 175.886 12.796C175.867 12.8707 175.783 12.992 175.634 13.16C175.485 13.328 175.373 13.4167 175.298 13.426C175.289 13.426 175.256 13.44 175.2 13.468C175.144 13.496 175.107 13.5193 175.088 13.538H175.102C175.018 13.65 174.934 13.706 174.85 13.706H174.738C174.701 13.7807 174.575 13.8553 174.36 13.93C174.155 14.0047 173.959 14.042 173.772 14.042ZM174.402 10.962C174.682 10.962 174.939 10.8033 175.172 10.486C175.396 10.1873 175.508 9.88867 175.508 9.59C175.508 9.43133 175.475 9.31933 175.41 9.254C175.354 9.226 175.303 9.212 175.256 9.212C175.209 9.212 175.13 9.226 175.018 9.254C174.897 9.282 174.71 9.41267 174.458 9.646C174.206 9.87 174.019 10.0707 173.898 10.248L173.716 10.542C173.791 10.514 173.861 10.5 173.926 10.5C174.001 10.4907 174.043 10.4953 174.052 10.514C174.052 10.6447 174.085 10.752 174.15 10.836C174.215 10.92 174.299 10.962 174.402 10.962ZM177.821 13.888C177.504 13.888 177.228 13.8227 176.995 13.692C176.762 13.5613 176.608 13.384 176.533 13.16C176.468 12.992 176.435 12.8987 176.435 12.88C176.435 12.824 176.468 12.782 176.533 12.754C176.598 12.754 176.673 12.782 176.757 12.838C176.85 12.894 176.925 12.9313 176.981 12.95C177.121 13.0807 177.312 13.146 177.555 13.146C177.742 13.146 177.91 13.1087 178.059 13.034C178.218 12.9593 178.306 12.8707 178.325 12.768C178.325 12.7213 178.278 12.558 178.185 12.278C177.952 11.942 177.77 11.6013 177.639 11.256C177.518 10.9013 177.457 10.6027 177.457 10.36C177.457 10.1827 177.508 10.0007 177.611 9.814C177.714 9.62733 177.854 9.46867 178.031 9.338C178.264 9.09533 178.544 8.876 178.871 8.68C179.207 8.484 179.51 8.34867 179.781 8.274C179.893 8.274 180.028 8.288 180.187 8.316C180.355 8.344 180.472 8.37667 180.537 8.414C180.64 8.45133 180.738 8.554 180.831 8.722C180.924 8.89 180.971 9.04867 180.971 9.198C180.971 9.34733 180.892 9.55267 180.733 9.814C180.714 9.87933 180.677 9.968 180.621 10.08C180.565 10.192 180.537 10.262 180.537 10.29C180.5 10.3833 180.439 10.43 180.355 10.43C180.271 10.43 180.187 10.3927 180.103 10.318C180.028 10.234 179.968 10.136 179.921 10.024C179.893 9.912 179.879 9.814 179.879 9.73C179.879 9.618 179.916 9.506 179.991 9.394C180.094 9.29133 180.145 9.22133 180.145 9.184C180.145 9.14667 180.094 9.128 179.991 9.128C179.879 9.128 179.664 9.21667 179.347 9.394C179.03 9.57133 178.778 9.758 178.591 9.954C178.423 10.1127 178.32 10.234 178.283 10.318C178.246 10.3927 178.227 10.5093 178.227 10.668C178.227 10.808 178.255 10.976 178.311 11.172C178.376 11.3587 178.442 11.4847 178.507 11.55C178.526 11.5873 178.563 11.6667 178.619 11.788C178.684 11.9093 178.759 12.026 178.843 12.138C179.03 12.558 179.123 12.8847 179.123 13.118C179.123 13.3887 179.016 13.5847 178.801 13.706C178.596 13.8273 178.269 13.888 177.821 13.888Z" fill="#FF2E2E"/>
<path d="M69 50C73 50 81.6849 48.9072 86.6174 46.4715C89.3277 45.1332 89.0869 43.2879 86.3162 42.8909C84.5689 42.6406 80.4706 43.2423 81.3636 44.7649C81.86 45.6114 83.2099 45.5751 84.1913 45.5847C86.6513 45.609 89.1193 45.3228 91.5365 44.8653C107.606 41.8235 122.608 35.1541 136.411 26.5272C140.296 24.099 144.073 21.3411 147.889 18.7971" stroke="#FF2E2E" stroke-width="0.8" stroke-linecap="round"/>
<path d="M144.608 17.9898C145.825 17.9898 147.056 17.9277 148.267 17.9277C148.547 17.9277 147.943 20.7701 147.895 21.1527" stroke="#FF2E2E" stroke-width="0.8" stroke-linecap="round"/>
</svg>
